<?xml version="1.0" encoding="UTF-8"?>
<svg version="1.1" xmlns="http://www.w3.org/2000/svg" width="112" height="112">
<path d="M0 0 C36.96 0 73.92 0 112 0 C112 36.96 112 73.92 112 112 C75.04 112 38.08 112 0 112 C0 75.04 0 38.08 0 0 Z " fill="#4901D8" transform="translate(0,0)"/>
<path d="M0 0 C1.32 0 2.64 0 4 0 C5.65046012 2.08976929 6.97058228 4.03591175 8.3125 6.3125 C9.09882571 7.5951334 9.88528581 8.87768442 10.671875 10.16015625 C11.06052734 10.80484863 11.44917969 11.44954102 11.84960938 12.11376953 C13.52743864 14.86481132 15.30007616 17.5526318 17.0625 20.25 C20 24.75283447 20 24.75283447 20 27 C20.66 27 21.32 27 22 27 C22.22042969 26.47148438 22.44085938 25.94296875 22.66796875 25.3984375 C24.4818588 22.13237155 26.87596035 19.43365394 29.3125 16.625 C30.26713899 15.51320275 31.22156717 14.40122446 32.17578125 13.2890625 C32.87501709 12.47743652 32.87501709 12.47743652 33.58837891 11.64941406 C35.75198353 9.12134197 37.87589411 6.56130802 40 4 C44.14611875 4.96782764 48.00695896 6.51167589 51.9375 8.125 C53.05789673 8.58434937 53.05789673 8.58434937 54.20092773 9.05297852 C61.06478193 11.92504622 67.54406067 15.30607993 74 19 C74.29206649 23.01928423 74.46849455 27.03583834 74.625 31.0625 C74.70878906 32.19623047 74.79257813 33.32996094 74.87890625 34.49804688 C75.12055869 42.78672557 75.12055869 42.78672557 71.94042969 46.22998047 C69.37016688 48.03456131 66.7790296 49.54157495 64 51 C62.9275 51.721875 61.855 52.44375 60.75 53.1875 C58.8222806 54.45804233 56.89383255 55.7274795 54.96484375 56.99609375 C51.29160852 59.47879424 47.76085246 62.1358552 44.25390625 64.84765625 C42 66 42 66 39.5234375 66.15234375 C35.58346595 64.35313074 34.16196476 61.1705656 32.0625 57.5 C31.19240414 56.04107107 30.32131452 54.58273434 29.44921875 53.125 C29.0320459 52.41730469 28.61487305 51.70960937 28.18505859 50.98046875 C25.93721875 47.22388103 23.46910734 43.61332782 21 40 C16.40201122 41.83114652 14.58100946 45.12677495 11.87890625 49.1015625 C10 51 10 51 7.27734375 51.2734375 C6.15005859 51.13808594 6.15005859 51.13808594 5 51 C4.35351562 49.19116211 4.35351562 49.19116211 4 47 C6.22973809 44.0901918 8.59596397 41.50447519 11.12890625 38.86523438 C14.19264623 35.62155861 14.19264623 35.62155861 15.03515625 31.40234375 C13.88114393 28.72416421 12.56067549 26.42551963 10.9375 24 C10.31746094 23.04867187 9.69742188 22.09734375 9.05859375 21.1171875 C7.99845514 19.51189222 6.93794864 17.90682898 5.87158203 16.30566406 C4.73394113 14.58735733 3.61614838 12.85732174 2.5 11.125 C1.8090625 10.07570313 1.118125 9.02640625 0.40625 7.9453125 C-1.15884464 4.66730874 -1.1475427 3.38026166 0 0 Z " fill="#F4EDFC" transform="translate(24,23)"/>
<path d="M0 0 C3.36220808 1.23872758 6.54243924 2.78342495 9.75 4.375 C10.61238281 4.7875 11.47476563 5.2 12.36328125 5.625 C18.69835201 8.69835201 18.69835201 8.69835201 21 11 C22.79220011 24.10362706 22.79220011 24.10362706 19.73828125 29.0390625 C17.5963281 30.62810367 15.36625805 31.76484686 13 33 C11.76918562 33.83858436 10.54998468 34.69434868 9.33984375 35.5625 C8.01833782 36.50015315 6.69672236 37.43765195 5.375 38.375 C4.74198975 38.8292334 4.10897949 39.2834668 3.45678711 39.75146484 C0.59313402 41.69843504 -1.72669228 42.92874723 -5.1015625 43.80859375 C-9.83426326 42.48828505 -11.36652371 38.77110134 -13.75 34.6875 C-14.23082031 33.90181641 -14.71164063 33.11613281 -15.20703125 32.30664062 C-16.10071527 30.84413543 -16.98550681 29.37613246 -17.85839844 27.90112305 C-18.85738619 26.23749653 -19.92359148 24.61461278 -21 23 C-21.49633309 19.2673726 -21.41482748 17.59642974 -19.2421875 14.47265625 C-18.46101563 13.67730469 -17.67984375 12.88195312 -16.875 12.0625 C-13.50593448 8.57744161 -10.42847285 5.10145148 -7.58203125 1.1796875 C-4.94478376 -0.78685261 -3.23957103 -0.42752018 0 0 Z " fill="#4D02E6" transform="translate(71,36)"/>
<path d="M0 0 C4.62 0 9.24 0 14 0 C13.01 0.66 12.02 1.32 11 2 C9.79648978 2.93814828 8.60956871 3.89785417 7.4375 4.875 C6.53837891 5.61363281 6.53837891 5.61363281 5.62109375 6.3671875 C1.51425187 10.5037174 1.69319366 14.92890569 1.67773438 20.49707031 C1.66780457 21.35287186 1.65787476 22.2086734 1.64764404 23.09040833 C1.61845198 25.91968006 1.60480491 28.74872744 1.59375 31.578125 C1.58224174 33.54864506 1.57072634 35.51916508 1.5592041 37.48968506 C1.53819794 41.62220298 1.52650399 45.75464325 1.51953125 49.88720703 C1.50857184 55.17116389 1.4605354 60.45408734 1.40358734 65.73772049 C1.36625359 69.8093562 1.35591912 73.88074515 1.3528595 77.95253754 C1.34682221 79.89974357 1.33081808 81.84694607 1.30448914 83.79398346 C1.27019585 86.5252278 1.27416575 89.25397655 1.28710938 91.98535156 C1.26867981 92.7825209 1.25025024 93.57969025 1.23126221 94.40101624 C1.32416333 100.69053121 3.64967569 104.52527588 8 109 C9.32 109.99 10.64 110.98 12 112 C8.04 112 4.08 112 0 112 C0 75.04 0 38.08 0 0 Z " fill="#9078CD" transform="translate(0,0)"/>
<path d="M0 0 C2.0625 0.4375 2.0625 0.4375 4 1 C3.67 1.598125 3.34 2.19625 3 2.8125 C1.79212012 5.05386471 1.79212012 5.05386471 2 8 C3.98 8 5.96 8 8 8 C8 8.66 8 9.32 8 10 C6.68 10.33 5.36 10.66 4 11 C3.87625 11.9075 3.7525 12.815 3.625 13.75 C2.65618797 18.78782257 2.03735703 20.26188058 -2.25 23.3125 C-5.77374783 25.21103919 -8.11283491 25.13770686 -12 24 C-12 21.69 -12 19.38 -12 17 C-11.34 17 -10.68 17 -10 17 C-9.67 15.68 -9.34 14.36 -9 13 C-8.34 13 -7.68 13 -7 13 C-6.67 12.01 -6.34 11.02 -6 10 C-5.154375 9.566875 -4.30875 9.13375 -3.4375 8.6875 C-2.633125 8.130625 -1.82875 7.57375 -1 7 C-0.66638081 3.91608998 -0.66638081 3.91608998 -1 1 C-0.67 0.67 -0.34 0.34 0 0 Z " fill="#4524BE" transform="translate(27,65)"/>
<path d="M0 0 C0.99 0.33 1.98 0.66 3 1 C1.33454396 3.24836565 -0.36406368 5.44972572 -2.125 7.625 C-5.3364674 11.6928587 -5.13694339 14.83779018 -5.11352539 19.84619141 C-5.11367142 20.65602982 -5.11381744 21.46586823 -5.1139679 22.30024719 C-5.11326977 24.98404596 -5.10548204 27.66777581 -5.09765625 30.3515625 C-5.09579171 32.20958417 -5.09436798 34.06760633 -5.09336853 35.92562866 C-5.08954615 40.82142488 -5.07971823 45.71719155 -5.06866455 50.61297607 C-5.05844444 55.60656331 -5.05386962 60.60015532 -5.04882812 65.59375 C-5.03809573 75.39584634 -5.02102264 85.19792071 -5 95 C-4.34 95 -3.68 95 -3 95 C-3 96.65 -3 98.3 -3 100 C-3.99 100.495 -3.99 100.495 -5 101 C-7.55597428 97.16603858 -7.2954892 94.02995796 -7.29052734 89.5847168 C-7.29724457 88.72584869 -7.30396179 87.86698059 -7.31088257 86.98208618 C-7.32990756 84.13773845 -7.33378924 81.29362618 -7.3359375 78.44921875 C-7.34236306 76.47247724 -7.34909124 74.49573669 -7.35610962 72.51899719 C-7.36809419 68.37209875 -7.37178931 64.22528368 -7.37060547 60.07836914 C-7.37040239 54.76863479 -7.39768806 49.45943633 -7.43214989 44.14982891 C-7.45440749 40.06540989 -7.45844333 35.98111996 -7.45738602 31.8966465 C-7.45974432 29.9394528 -7.46858077 27.98225567 -7.48405075 26.02512169 C-7.5036845 23.28419081 -7.49788271 20.54441699 -7.48583984 17.8034668 C-7.49707886 16.99753586 -7.50831787 16.19160492 -7.51989746 15.36125183 C-7.4510925 9.1871421 -5.5038866 5.68273565 -1.25 1.125 C-0.8375 0.75375 -0.425 0.3825 0 0 Z " fill="#2E07A5" transform="translate(8,3)"/>
<path d="M0 0 C0.66 0 1.32 0 2 0 C2 4.62 2 9.24 2 14 C-15.16 14 -32.32 14 -50 14 C-50 13.67 -50 13.34 -50 13 C-48.80922852 12.9906543 -47.61845703 12.98130859 -46.39160156 12.97167969 C-41.97064908 12.93178613 -37.55039297 12.86602927 -33.12988281 12.79248047 C-31.21721344 12.76426714 -29.3044274 12.74305439 -27.39160156 12.72900391 C-24.64066827 12.70757919 -21.89113825 12.6609326 -19.140625 12.609375 C-18.28631897 12.60814636 -17.43201294 12.60691772 -16.55181885 12.60565186 C-11.6506117 12.54924844 -11.6506117 12.54924844 -7.61621094 9.96191406 C-7.08286133 9.31448242 -6.54951172 8.66705078 -6 8 C-5.01 8 -4.02 8 -3 8 C-1.58622659 5.36095629 -0.62759865 2.92879371 0 0 Z " fill="#6F07E1" transform="translate(110,98)"/>
<path d="M0 0 C0.78375 0.04125 1.5675 0.0825 2.375 0.125 C2.75492882 3.46718632 2.61036171 4.79454796 0.625 7.58203125 C-0.1175 8.35933594 -0.86 9.13664062 -1.625 9.9375 C-2.3675 10.72769531 -3.11 11.51789063 -3.875 12.33203125 C-4.74125 13.21955078 -4.74125 13.21955078 -5.625 14.125 C-7.5625 13.8125 -7.5625 13.8125 -9.625 13.125 C-9.955 12.135 -10.285 11.145 -10.625 10.125 C-9.48046875 8.15234375 -9.48046875 8.15234375 -7.8125 6.0625 C-6.99845703 5.02416016 -6.99845703 5.02416016 -6.16796875 3.96484375 C-2.96114153 0.14100674 -2.96114153 0.14100674 0 0 Z " fill="#38CD91" transform="translate(26.625,74.875)"/>
<path d="M0 0 C4.62 0 9.24 0 14 0 C13.01 0.66 12.02 1.32 11 2 C5.84511446 5.78415461 3.07007618 8.91154064 1 15 C0.67 15 0.34 15 0 15 C0 10.05 0 5.1 0 0 Z " fill="#F3EEF9" transform="translate(0,0)"/>
<path d="M0 0 C0.66 1.32 1.32 2.64 2 4 C2.92510301 5.3770819 3.884963 6.73133627 4.875 8.0625 C5.36742187 8.73410156 5.85984375 9.40570313 6.3671875 10.09765625 C8.20848869 12.38164828 8.20848869 12.38164828 12 15 C8.04 15 4.08 15 0 15 C0 10.05 0 5.1 0 0 Z " fill="#F5F0FC" transform="translate(0,97)"/>
<path d="M0 0 C0 0.99 0 1.98 0 3 C-4.41151278 6.51120405 -9.08043652 9.26690918 -14 12 C-15.36125 12.8971875 -15.36125 12.8971875 -16.75 13.8125 C-17.4925 14.204375 -18.235 14.59625 -19 15 C-19.99 14.67 -20.98 14.34 -22 14 C-22.33 14.66 -22.66 15.32 -23 16 C-23 15.01 -23 14.02 -23 13 C-22.05125 12.649375 -21.1025 12.29875 -20.125 11.9375 C-14.13077246 9.38598563 -8.91132945 5.29979346 -3.82421875 1.28125 C-2 0 -2 0 0 0 Z " fill="#6313DF" transform="translate(85,76)"/>
<path d="M0 0 C0.33 0 0.66 0 1 0 C1 7.92 1 15.84 1 24 C1.66 24.33 2.32 24.66 3 25 C-0.36843337 28.92983894 -4.96608285 31.03193901 -10 32 C-7.88651399 29.72995947 -6.20405597 28.1001792 -3.3996582 26.72338867 C-0.75174595 25.21354654 -0.75174595 25.21354654 -0.34057617 22.36450195 C-0.32486572 21.33284912 -0.30915527 20.30119629 -0.29296875 19.23828125 C-0.26396484 18.12001953 -0.23496094 17.00175781 -0.20507812 15.84960938 C-0.19927734 14.68236328 -0.19347656 13.51511719 -0.1875 12.3125 C-0.16236328 11.13365234 -0.13722656 9.95480469 -0.11132812 8.74023438 C-0.0523454 5.826488 -0.01614629 2.91424772 0 0 Z " fill="#722ADF" transform="translate(98,42)"/>
<path d="M0 0 C3.63 0 7.26 0 11 0 C11 2.97 11 5.94 11 9 C9.30729167 7.53515625 7.61458333 6.0703125 5.921875 4.60546875 C4.00274745 3.00229513 2.00051453 1.5003859 0 0 Z " fill="#F5EDFC" transform="translate(101,0)"/>
<path d="M0 0 C0.33 0.66 0.66 1.32 1 2 C-1.35264864 6.99937836 -5.32444324 10.94178253 -9 15 C-9.99 14.67 -10.98 14.34 -12 14 C-8.04 9.38 -4.08 4.76 0 0 Z " fill="#4F1CD3" transform="translate(64,37)"/>
<path d="M0 0 C0.33 0 0.66 0 1 0 C1 3.3 1 6.6 1 10 C-2.3 10 -5.6 10 -9 10 C-8.236875 9.401875 -7.47375 8.80375 -6.6875 8.1875 C-2.36789787 4.78488452 -2.36789787 4.78488452 0 0 Z " fill="#F9EEFD" transform="translate(111,102)"/>
<path d="M0 0 C0.66 0 1.32 0 2 0 C1.93070495 3.46475274 1.80173399 6.0684222 -0.51953125 8.765625 C-3.3126274 11.1882684 -5.4616208 12.82054027 -9 14 C-9.33 13.34 -9.66 12.68 -10 12 C-8.1875 10 -8.1875 10 -6 8 C-5.01 8 -4.02 8 -3 8 C-1.58622659 5.36095629 -0.62759865 2.92879371 0 0 Z " fill="#8E1CE9" transform="translate(110,98)"/>
<path d="M0 0 C0.66 0.33 1.32 0.66 2 1 C1.50628906 1.53109375 1.01257812 2.0621875 0.50390625 2.609375 C-0.13675781 3.31578125 -0.77742188 4.0221875 -1.4375 4.75 C-2.07558594 5.44609375 -2.71367187 6.1421875 -3.37109375 6.859375 C-4.99081325 8.98792725 -5.58267256 10.39023405 -6 13 C-4.68 13.99 -3.36 14.98 -2 16 C-4.97 15.505 -4.97 15.505 -8 15 C-8 12.69 -8 10.38 -8 8 C-7.34 8 -6.68 8 -6 8 C-5.67 6.68 -5.34 5.36 -5 4 C-4.34 4 -3.68 4 -3 4 C-2.67 3.01 -2.34 2.02 -2 1 C-1.34 0.67 -0.68 0.34 0 0 Z " fill="#281AAD" transform="translate(23,74)"/>
<path d="M0 0 C1.32 0.33 2.64 0.66 4 1 C3.34 1 2.68 1 2 1 C1.87625 1.9075 1.7525 2.815 1.625 3.75 C0.77722938 8.15840724 0.1803078 10.14427684 -3.5 12.8125 C-4.325 13.204375 -5.15 13.59625 -6 14 C-6.66 13.67 -7.32 13.34 -8 13 C-7.50628906 12.48050781 -7.01257813 11.96101563 -6.50390625 11.42578125 C-5.86324219 10.72839844 -5.22257812 10.03101562 -4.5625 9.3125 C-3.92441406 8.62800781 -3.28632813 7.94351563 -2.62890625 7.23828125 C-0.83778902 4.77710578 -0.37201442 2.99183426 0 0 Z " fill="#311EB6" transform="translate(29,75)"/>
<path d="M0 0 C1.32 0.33 2.64 0.66 4 1 C4 2.32 4 3.64 4 5 C4.66 5.33 5.32 5.66 6 6 C7.35278115 7.98689731 8.68568305 9.98745218 10 12 C10.66 12.66 11.32 13.32 12 14 C11.67 14.66 11.34 15.32 11 16 C10.34 16 9.68 16 9 16 C7.54937227 13.92047027 6.2294501 11.86232119 4.9375 9.6875 C4.57333984 9.09259766 4.20917969 8.49769531 3.83398438 7.88476562 C2.25923261 5.2795848 0.96577099 2.89731298 0 0 Z " fill="#491EC0" transform="translate(35,34)"/>
<path d="M0 0 C0.99 0.33 1.98 0.66 3 1 C-2.71428571 8.71428571 -2.71428571 8.71428571 -6 12 C-6.33 11.01 -6.66 10.02 -7 9 C-5.02154932 5.60837026 -2.9244745 2.63202705 0 0 Z " fill="#3810A7" transform="translate(8,3)"/>
<path d="M0 0 C1.21236328 0.01353516 1.21236328 0.01353516 2.44921875 0.02734375 C3.37154297 0.04474609 3.37154297 0.04474609 4.3125 0.0625 C1.44085434 2.76522533 0.00258159 4.01041837 -4 4.3125 C-4.886875 4.23 -5.77375 4.1475 -6.6875 4.0625 C-7.0175 3.0725 -7.3475 2.0825 -7.6875 1.0625 C-4.80538698 0.10179566 -2.98899956 -0.04331883 0 0 Z " fill="#5C12DF" transform="translate(69.6875,74.9375)"/>
<path d="M0 0 C2.631724 2.45627573 4.81527263 4.55352037 6 8 C5.875 10.0625 5.875 10.0625 5 12 C2.9375 13.75 2.9375 13.75 1 15 C1.165 14.4225 1.33 13.845 1.5 13.25 C2.57685213 8.40416543 1.42335874 4.6259159 0 0 Z " fill="#461ABF" transform="translate(34,46)"/>
<path d="M0 0 C0.721875 0.12375 1.44375 0.2475 2.1875 0.375 C2.1875 2.025 2.1875 3.675 2.1875 5.375 C1.1975 5.87 1.1975 5.87 0.1875 6.375 C-0.4725 5.715 -1.1325 5.055 -1.8125 4.375 C-3.7925 5.035 -5.7725 5.695 -7.8125 6.375 C-3.50480769 0.46730769 -3.50480769 0.46730769 0 0 Z " fill="#3DB59E" transform="translate(26.8125,74.625)"/>
<path d="M0 0 C0.12375 0.515625 0.2475 1.03125 0.375 1.5625 C1.18641628 4.72702351 2.0945913 7.86124985 3 11 C3.99 11 4.98 11 6 11 C6 12.65 6 14.3 6 16 C2.05146657 12.32377922 -0.82445561 9.28207707 -1.25 3.75 C-1 1 -1 1 0 0 Z " fill="#5220CB" transform="translate(51,52)"/>
<path d="M0 0 C1.65 0.33 3.3 0.66 5 1 C1.72291137 4.67033927 -1.71522208 6.69281189 -6 9 C-6.33 8.01 -6.66 7.02 -7 6 C-6.01 6 -5.02 6 -4 6 C-4 5.34 -4 4.68 -4 4 C-3.01 3.34 -2.02 2.68 -1 2 C-0.67 1.34 -0.34 0.68 0 0 Z " fill="#661AE2" transform="translate(85,63)"/>
<path d="M0 0 C4.875 4.625 4.875 4.625 6 8 C4.02 7.34 2.04 6.68 0 6 C-0.38218767 4.34385343 -0.71395102 2.67542976 -1 1 C-0.67 0.67 -0.34 0.34 0 0 Z " fill="#4E14D0" transform="translate(49,70)"/>
<path d="M0 0 C0 0.99 0 1.98 0 3 C-2.30368736 4.06652192 -4.64018187 5.06421005 -7 6 C-7.66 5.67 -8.32 5.34 -9 5 C-7.87926138 4.16094435 -6.75325453 3.32892169 -5.625 2.5 C-4.99851562 2.0359375 -4.37203125 1.571875 -3.7265625 1.09375 C-2 0 -2 0 0 0 Z " fill="#7023E1" transform="translate(85,76)"/>
<path d="M0 0 C3 1 3 1 4.25 2.8125 C5.11637742 5.33943414 4.88492145 6.52221994 4 9 C0 3.375 0 3.375 0 0 Z " fill="#4218BB" transform="translate(30,25)"/>
<path d="M0 0 C1.98 0.495 1.98 0.495 4 1 C3.34 2.32 2.68 3.64 2 5 C1.01 4.67 0.02 4.34 -1 4 C-0.67 2.68 -0.34 1.36 0 0 Z " fill="#4314C6" transform="translate(27,65)"/>
</svg>
